# xmcd
#
# Track frame offsets:
#	150
#	11567
#	26303
#	45617
#	56868
#	69098
#	85050
#	103288
#	119401
#	137802
#	152909
#	167827
#	181999
#	192545
#
# Disc length: 2725 seconds
# Revision: 0
# Processed by: cddbd v1.5.2PL0 Copyright (c) Steve Scherf et al.
# Submitted via: dBpowerAMP V12.0
#
DISCID=be0aa30e
DTITLE=Russell Moore and IIIrd Tyme Out - It's About Tyme
DYEAR=2015
DGENRE=Country
TTITLE0=I'm Leaving You and Fort Worth Too
TTITLE1=Sweet Mountain Rose
TTITLE2=The Lowlands 
TTITLE3=Are You Tired Of Me My Darling
TTITLE4=Had It not Been For The Train
TTITLE5=Spindale
TTITLE6=I Think I Want My Rib Back
TTITLE7=Cottontown
TTITLE8=Makes Me Wonder if I Ever Said Goodbye
TTITLE9=Poison Cove
TTITLE10=River Bottom
TTITLE11=Enough for You
TTITLE12=You Send Me
TTITLE13=Brown County Red
EXTD=
EXTT0=
EXTT1=
EXTT2=
EXTT3=
EXTT4=
EXTT5=
EXTT6=
EXTT7=
EXTT8=
EXTT9=
EXTT10=
EXTT11=
EXTT12=
EXTT13=
PLAYORDER=
